<svg width="23" height="17" viewBox="0 0 23 17" fill="none" xmlns="http://www.w3.org/2000/svg">
<path d="M1.3335 6.00049C1.3335 3.04238 3.88758 0.730958 6.83101 1.0253L10.7365 1.41585C11.1335 1.45555 11.5335 1.45555 11.9305 1.41585L15.836 1.0253C18.7794 0.730958 21.3335 3.04238 21.3335 6.00049V12C21.3335 15.5932 16.6376 16.9552 14.715 13.9196C13.3447 11.7559 10.2138 11.6836 8.7451 13.7818L8.46085 14.1878C6.26422 17.3259 1.3335 15.7716 1.3335 11.9411V6.00049Z" stroke="#5B5B5B" stroke-width="1.5"/>
<circle cx="17.3335" cy="5.97559" r="1" fill="#5B5B5B"/>
<circle cx="15.3335" cy="8.97559" r="1" fill="#5B5B5B"/>
<path d="M7.3335 9.47559L7.3335 5.47559" stroke="#5B5B5B" stroke-width="1.5" stroke-linecap="round" stroke-linejoin="round"/>
<path d="M5.3335 7.47559L9.3335 7.47559" stroke="#5B5B5B" stroke-width="1.5" stroke-linecap="round" stroke-linejoin="round"/>
</svg>
