<svg width="152" height="40" viewBox="0 0 152 40" fill="none" xmlns="http://www.w3.org/2000/svg">
<path d="M74.1382 9.96193C75.4901 9.96193 76.586 8.86603 76.586 7.51417C76.586 6.16231 75.4901 5.06641 74.1382 5.06641C72.7863 5.06641 71.6904 6.16231 71.6904 7.51417C71.6904 8.86603 72.7863 9.96193 74.1382 9.96193Z" stroke="#494799" stroke-width="0.72" stroke-miterlimit="10" stroke-linecap="round" stroke-linejoin="round"/>
<path d="M74.1382 37.0664C75.4901 37.0664 76.586 35.9705 76.586 34.6187C76.586 33.2668 75.4901 32.1709 74.1382 32.1709C72.7863 32.1709 71.6904 33.2668 71.6904 34.6187C71.6904 35.9705 72.7863 37.0664 74.1382 37.0664Z" stroke="#494799" stroke-width="0.72" stroke-miterlimit="10" stroke-linecap="round" stroke-linejoin="round"/>
<path d="M15.0898 15.1557H24.1549V7.39453L67.6307 7.45423" stroke="#494799" stroke-width="0.7196" stroke-miterlimit="10" stroke-linecap="round" stroke-linejoin="round"/>
<path d="M13.3005 16.7679C14.256 16.7679 15.0306 15.9927 15.0306 15.0365C15.0306 14.0803 14.256 13.3052 13.3005 13.3052C12.3449 13.3052 11.5703 14.0803 11.5703 15.0365C11.5703 15.9927 12.3449 16.7679 13.3005 16.7679Z" stroke="#494799" stroke-width="0.64" stroke-miterlimit="10" stroke-linecap="round" stroke-linejoin="round"/>
<path d="M13.3622 28.4695C14.3184 28.4695 15.0935 27.6944 15.0935 26.7382C15.0935 25.782 14.3184 25.0068 13.3622 25.0068C12.406 25.0068 11.6309 25.782 11.6309 26.7382C11.6309 27.6944 12.406 28.4695 13.3622 28.4695Z" stroke="#494799" stroke-width="0.64" stroke-miterlimit="10" stroke-linecap="round" stroke-linejoin="round"/>
<path d="M15.0938 26.7979H24.1684V34.559H67.6311" stroke="#494799" stroke-width="0.72" stroke-miterlimit="10" stroke-linecap="round" stroke-linejoin="round"/>
<path d="M8.82509 22.4992C9.78129 22.4992 10.5564 21.724 10.5564 20.7678C10.5564 19.8116 9.78129 19.0365 8.82509 19.0365C7.8689 19.0365 7.09375 19.8116 7.09375 20.7678C7.09375 21.724 7.8689 22.4992 8.82509 22.4992Z" stroke="#494799" stroke-width="0.64" stroke-miterlimit="10" stroke-linecap="round" stroke-linejoin="round"/>
<path d="M10.6152 20.7676H34.257" stroke="#494799" stroke-width="0.72" stroke-miterlimit="10" stroke-linecap="round" stroke-linejoin="round"/>
<path d="M136.288 15.0962H127.213V7.33496L80.7656 7.39466" stroke="#494799" stroke-width="0.72" stroke-miterlimit="10" stroke-linecap="round" stroke-linejoin="round"/>
<path d="M138.145 16.6805C139.102 16.6805 139.877 15.9053 139.877 14.9491C139.877 13.9929 139.102 13.2178 138.145 13.2178C137.189 13.2178 136.414 13.9929 136.414 14.9491C136.414 15.9053 137.189 16.6805 138.145 16.6805Z" stroke="#494799" stroke-width="0.64" stroke-miterlimit="10" stroke-linecap="round" stroke-linejoin="round"/>
<path d="M138.145 28.3826C139.102 28.3826 139.877 27.6075 139.877 26.6513C139.877 25.6951 139.102 24.9199 138.145 24.9199C137.189 24.9199 136.414 25.6951 136.414 26.6513C136.414 27.6075 137.189 28.3826 138.145 28.3826Z" stroke="#494799" stroke-width="0.64" stroke-miterlimit="10" stroke-linecap="round" stroke-linejoin="round"/>
<path d="M136.295 26.7104H127.221V34.4716L80.7656 34.4394" stroke="#494799" stroke-width="0.72" stroke-miterlimit="10" stroke-linecap="round" stroke-linejoin="round"/>
<path d="M142.563 22.4119C143.52 22.4119 144.295 21.6368 144.295 20.6806C144.295 19.7244 143.52 18.9492 142.563 18.9492C141.607 18.9492 140.832 19.7244 140.832 20.6806C140.832 21.6368 141.607 22.4119 142.563 22.4119Z" stroke="#494799" stroke-width="0.64" stroke-miterlimit="10" stroke-linecap="round" stroke-linejoin="round"/>
<path d="M140.773 20.6807H117.131" stroke="#494799" stroke-width="0.72" stroke-miterlimit="10" stroke-linecap="round" stroke-linejoin="round"/>
<path d="M64.6611 17.5664C62.8808 17.5664 61.6211 18.8822 61.6211 20.7342C61.6211 22.5849 62.8808 23.8876 64.6611 23.8876C66.4414 23.8876 67.7011 22.5849 67.7011 20.7342C67.7023 18.8822 66.4414 17.5664 64.6611 17.5664Z" fill="#494799"/>
<path d="M91.2979 21.926H93.8996L92.5981 18.6353L91.2979 21.926Z" fill="#494799"/>
<path d="M113.613 12.708H37.4099C35.4708 12.708 33.8994 14.2794 33.8994 16.2185V25.3767C33.8994 27.3158 35.4708 28.8871 37.4099 28.8871H113.613C115.552 28.8871 117.123 27.3158 117.123 25.3767V16.2185C117.123 14.2794 115.552 12.708 113.613 12.708ZM43.0517 21.1032C42.5454 21.6107 41.792 21.9128 40.7376 21.9128H39.5878V25.2991H37.8075V16.1528H40.4642C41.4911 16.1528 42.2039 16.2626 42.8749 16.8525C43.614 17.5104 43.8063 18.4023 43.8063 19.0602C43.8051 19.4173 43.7502 20.4047 43.0517 21.1032ZM47.4887 25.5056C45.8039 25.5056 44.8176 24.4776 44.3388 23.7779L45.503 22.6674C45.9412 23.5582 46.777 23.8877 47.4206 23.8877C48.229 23.8877 48.8308 23.3946 48.8308 22.6256C48.8308 22.2973 48.7209 22.0358 48.4749 21.8029C48.1323 21.4877 47.5854 21.3098 47.0648 21.1307C46.586 20.9659 46.0105 20.7474 45.5448 20.3355C45.2439 20.0752 44.8188 19.5677 44.8188 18.6352C44.8188 17.2919 45.7227 15.9474 47.749 15.9474C48.3245 15.9474 49.4063 16.0573 50.3376 17.0173L49.4063 18.2376C48.8725 17.5247 48.2421 17.4567 47.9137 17.4567C46.9549 17.4567 46.654 18.0596 46.654 18.5265C46.654 18.7462 46.7221 18.9516 46.9418 19.1438C47.1615 19.3492 47.4624 19.4591 48.0379 19.6644C48.7508 19.9116 49.4218 20.1576 49.8863 20.5826C50.297 20.9528 50.6672 21.5701 50.6672 22.5026C50.666 24.2853 49.3788 25.5056 47.4887 25.5056ZM57.3896 25.2991L54.1442 21.1988L53.9388 21.4041V25.2979H52.1585V16.1516H53.9388V20.0191L57.294 16.1516H59.54L55.6773 20.3749L59.7454 25.2979H57.3896V25.2991ZM64.6612 25.5056C61.7848 25.5056 59.786 23.5176 59.786 20.7343C59.786 17.951 61.786 15.9486 64.6612 15.9486C67.5376 15.9486 69.5364 17.951 69.5364 20.7343C69.5364 23.5176 67.5376 25.5056 64.6612 25.5056ZM74.7137 25.2991H73.6451L69.8099 16.1528H71.7549L74.1931 22.2961L76.6314 16.1528H78.5764L74.7137 25.2991ZM86.9979 25.2991H85.2176V21.2262H81.3549V25.2991H79.5746V16.1528H81.3549V19.6907H85.2176V16.1528H86.9979V25.2991ZM95.2284 25.2991L94.42 23.3791H90.7364L89.9281 25.2991H87.9973L91.9281 16.1528H93.3251L97.146 25.2991H95.2284ZM104.486 18.5946C103.65 17.6346 102.61 17.5665 102.28 17.5665C100.445 17.5665 99.2534 19.0746 99.2534 20.7617C99.2534 22.7916 100.815 23.8877 102.348 23.8877C103.197 23.8877 103.951 23.5176 104.484 22.8871V24.9719C103.936 25.2597 103.21 25.5068 102.224 25.5068C100.622 25.5068 99.6499 24.9588 98.8821 24.2316C97.8278 23.2167 97.417 22.0788 97.417 20.7355C97.417 19.0758 98.1024 17.8829 98.8821 17.157C99.7991 16.2925 100.936 15.9498 102.237 15.9498C102.881 15.9498 103.649 16.0596 104.483 16.5122V18.5946H104.486ZM111.292 25.2991L108.045 21.1988L107.84 21.4041V25.2979H106.059V16.1516H107.84V20.0191L111.195 16.1516H113.441L109.578 20.3749L113.646 25.2979H111.292V25.2991Z" fill="#494799"/>
<path d="M41.4627 17.9772C41.0926 17.7169 40.6269 17.6895 40.203 17.6895H39.5869V20.3772H40.3129C40.6556 20.3772 41.0938 20.3772 41.4771 20.0895C41.8054 19.8292 41.9702 19.4172 41.9702 19.0196C41.9702 18.5121 41.723 18.1695 41.4627 17.9772Z" fill="#494799"/>
</svg>
