<svg width="34" height="29" viewBox="0 0 34 29" fill="none" xmlns="http://www.w3.org/2000/svg">
<path d="M1.13942 0.263072C0.732425 0.186073 0.340071 0.453587 0.263072 0.860581C0.186073 1.26758 0.453587 1.65993 0.860581 1.73693L1.13942 0.263072ZM5.48 6.2973L4.73416 6.37614L4.73498 6.38392L4.73596 6.39168L5.48 6.2973ZM7.17822 19.6841L6.43418 19.7785L7.17822 19.6841ZM0.860581 1.73693L3.39975 2.21731L3.67858 0.743455L1.13942 0.263072L0.860581 1.73693ZM9.16231 22.1824H26.3048V20.6824H9.16231V22.1824ZM30.4138 19.0184L32.9619 9.37661L31.5117 8.99334L28.9635 18.6351L30.4138 19.0184ZM4.41046 3.31411L4.73416 6.37614L6.22584 6.21845L5.90214 3.15642L4.41046 3.31411ZM4.73596 6.39168L6.43418 19.7785L7.92225 19.5897L6.22404 6.20291L4.73596 6.39168ZM30.0132 5.5473H5.48V7.0473H30.0132V5.5473ZM32.9619 9.37661C33.4732 7.4419 32.0143 5.5473 30.0132 5.5473V7.0473C31.0301 7.0473 31.7716 8.01013 31.5117 8.99334L32.9619 9.37661ZM26.3048 22.1824C28.2338 22.1824 29.9209 20.8833 30.4138 19.0184L28.9635 18.6351C28.6446 19.8418 27.553 20.6824 26.3048 20.6824V22.1824ZM9.16231 20.6824C8.53278 20.6824 8.00148 20.2143 7.92225 19.5897L6.43418 19.7785C6.60848 21.1525 7.77734 22.1824 9.16231 22.1824V20.6824ZM3.39975 2.21731C3.94175 2.31985 4.35246 2.76555 4.41046 3.31411L5.90214 3.15642C5.77456 1.94958 4.87099 0.969046 3.67858 0.743455L3.39975 2.21731Z" fill="#5B5B5B"/>
<path d="M18.6002 17.6416C19.0144 17.6416 19.3502 17.3058 19.3502 16.8916C19.3502 16.4774 19.0144 16.1416 18.6002 16.1416V17.6416ZM12.2002 16.1416C11.786 16.1416 11.4502 16.4774 11.4502 16.8916C11.4502 17.3058 11.786 17.6416 12.2002 17.6416V16.1416ZM12.2002 17.6416H18.6002V16.1416H12.2002V17.6416Z" fill="#5B5B5B"/>
<ellipse cx="11.4" cy="26.7297" rx="2.4" ry="2.27027" fill="#5B5B5B"/>
<ellipse cx="25.8004" cy="26.7297" rx="2.4" ry="2.27027" fill="#5B5B5B"/>
</svg>
